<svg xmlns="http://www.w3.org/2000/svg" viewBox="0 0 32 32">
  <defs>
    <linearGradient id="rise" x1="5" y1="27" x2="21" y2="4" gradientUnits="userSpaceOnUse">
      <stop offset="0" stop-color="#159E98"/>
      <stop offset="0.55" stop-color="#43CFB3"/>
      <stop offset="1" stop-color="#A0EAD5"/>
    </linearGradient>
    <linearGradient id="fall" x1="14" y1="5" x2="27" y2="29" gradientUnits="userSpaceOnUse">
      <stop offset="0" stop-color="#56C9DB"/>
      <stop offset="0.5" stop-color="#5099ED"/>
      <stop offset="1" stop-color="#746BE5"/>
    </linearGradient>
    <linearGradient id="ribbon" x1="9" y1="23" x2="25" y2="19" gradientUnits="userSpaceOnUse">
      <stop offset="0" stop-color="#57D3BC" stop-opacity="0"/>
      <stop offset="0.25" stop-color="#9BE6DD" stop-opacity="0.9"/>
      <stop offset="0.5" stop-color="#81D8EB"/>
      <stop offset="0.78" stop-color="#68B9EA" stop-opacity="0.65"/>
      <stop offset="1" stop-color="#529CEB" stop-opacity="0"/>
    </linearGradient>
  </defs>
  <path fill="url(#fall)" d="M13.2,8.1C12.2,5.9 13.4,3.8 15.8,3.8L17.3,3.8C19,3.8 20.3,4.7 21.1,6.5L29,24.3C29.9,26.3 28.5,28 26.5,28L25.1,28C23.2,28 22,27.2 21.2,25.4Z"/>
  <path fill="url(#rise)" d="M12.1,6.2C13,4.3 14.2,3.8 16.2,3.8L17.5,3.8C19.1,3.8 19.9,4.9 19.2,6.4L10,26C9.4,27.3 8.5,28 7,28L5.2,28C3.1,28 2,26.2 2.9,24.3Z"/>
  <path fill="url(#ribbon)" d="M11.3,20.2C14.9,19 17.3,17.3 20.6,16.6C23.7,16 25.2,17.5 25.2,19.4C25.2,21.2 23.5,22 21.7,22.4C18.8,23 16.3,24.8 13.2,25.4C11.2,25.8 9.8,25 9.4,23.4C9,21.9 10,20.7 11.3,20.2Z"/>
</svg>
